<svg width="11" height="11" viewBox="0 0 11 11" fill="none" xmlns="http://www.w3.org/2000/svg">
<path d="M4.36996 0C3.76861 0.0043175 3.29217 0.466171 3.26652 1.09169C3.27089 1.70038 3.73764 2.17215 4.36996 2.19542C4.93303 2.18779 5.43319 1.72356 5.46165 1.09169C5.45738 0.485485 4.99337 0.0276375 4.36996 0ZM4.67503 2.44177C4.4246 2.44177 4.21329 2.52587 4.0411 2.69414C3.90121 2.83454 3.74459 3.14423 3.79475 3.39281H3.78301L4.42868 6.50375C4.49528 6.86009 4.78854 7.08985 5.18006 7.11419C6.07946 7.11172 7.05471 7.09131 7.97389 7.10245L9.52362 9.80261C9.698 10.1706 10.1445 10.2481 10.4687 9.97879C10.6242 9.82448 10.6871 9.56193 10.5801 9.33311L8.78399 6.21013C8.65459 5.94239 8.39927 5.79156 8.07959 5.77586H6.08383L5.84922 4.62544H7.41042C7.74792 4.65041 7.99107 4.39284 7.92118 4.03849C7.86983 3.86535 7.69042 3.70595 7.4809 3.69791H5.64956C5.55727 3.22616 5.57195 2.94099 5.20928 2.61795C5.05667 2.50055 4.87851 2.44177 4.67503 2.44177ZM2.99094 3.77323C2.94132 3.77395 2.89194 3.78019 2.8437 3.79185C2.15213 4.06093 1.52996 4.52336 1.0476 5.16542C0.62255 5.7648 0.384913 6.48629 0.366699 7.27862C0.373776 8.21767 0.777008 9.18131 1.49964 9.9083C2.20005 10.5754 3.17224 10.978 4.21728 11C4.9795 10.9958 5.74146 10.7707 6.43619 10.3251C7.06016 9.90126 7.54915 9.29305 7.8447 8.53474C7.89949 8.40168 7.9465 8.25279 7.98564 8.08844C8.04293 7.83007 7.89791 7.62017 7.62183 7.53671C7.37072 7.48108 7.14615 7.61964 7.05837 7.88906C7.03504 8.00586 6.99962 8.11991 6.95267 8.22937C6.7533 8.75652 6.38222 9.2128 5.89019 9.56771C5.41183 9.89301 4.83892 10.0702 4.21728 10.0842C3.47799 10.0789 2.7659 9.79714 2.16881 9.26263C1.65576 8.76521 1.33481 8.05344 1.31774 7.27862C1.32102 6.72628 1.49889 6.18123 1.83423 5.68792C2.16308 5.23135 2.62344 4.87876 3.1843 4.64893C3.42065 4.57142 3.54797 4.32672 3.46589 4.06198C3.38661 3.87167 3.19984 3.77041 2.99094 3.77323Z" fill="#4ECB71"/>
</svg>
