<svg width="14" height="12" viewBox="0 0 14 12" fill="none" xmlns="http://www.w3.org/2000/svg">
<path d="M11.2265 0.606875C11.1098 0.422202 10.9453 0.269344 10.7488 0.163045C10.5522 0.0567453 10.3303 0.000591643 10.1044 0H2.98928C2.53232 0 2.10219 0.2325 1.86716 0.606875L0.09362 3.42813C0.032247 3.52526 -0.00012764 3.63656 3.78197e-07 3.75C0.00261499 4.35326 0.235355 4.93495 0.654684 5.38625V10.625C0.654684 11.3144 1.24193 11.875 1.96405 11.875H11.1296C11.8517 11.875 12.439 11.3144 12.439 10.625V5.38625C12.8583 4.93495 13.0911 4.35326 13.0937 3.75C13.0938 3.63656 13.0614 3.52526 13 3.42813L11.2265 0.606875ZM11.7738 3.90688C11.7334 4.20864 11.5793 4.48603 11.3402 4.6872C11.1012 4.88838 10.7936 4.99957 10.4749 5C9.75282 5 9.16557 4.43937 9.16557 3.75C9.16557 3.7075 9.1492 3.67 9.14003 3.63L9.15313 3.6275L8.65491 1.25H10.1044L11.7738 3.90688ZM5.77365 1.25H7.31936L7.85162 3.79062C7.8287 4.46062 7.25389 5 6.54683 5C5.83978 5 5.26496 4.46062 5.24205 3.79062L5.77365 1.25ZM2.98928 1.25H4.43875L3.94119 3.6275L3.95429 3.63C3.94447 3.67 3.9281 3.7075 3.9281 3.75C3.9281 4.43937 3.34085 5 2.61873 5C2.30007 4.99957 1.99247 4.88838 1.75342 4.6872C1.51438 4.48603 1.36025 4.20864 1.31984 3.90688L2.98928 1.25ZM5.23747 10.625V8.75H7.8562V10.625H5.23747ZM9.16557 10.625V8.75C9.16557 8.06063 8.57831 7.5 7.8562 7.5H5.23747C4.51535 7.5 3.9281 8.06063 3.9281 8.75V10.625H1.96405V6.16125C2.1742 6.21312 2.3909 6.25 2.61873 6.25C2.99047 6.25019 3.35797 6.17463 3.69667 6.02837C4.03537 5.88211 4.33747 5.66852 4.58278 5.40187C5.06267 5.92188 5.7658 6.25 6.54683 6.25C7.32787 6.25 8.031 5.92188 8.51088 5.40187C8.75619 5.66852 9.05829 5.88211 9.39699 6.02837C9.73569 6.17463 10.1032 6.25019 10.4749 6.25C10.7028 6.25 10.9195 6.21312 11.1296 6.16125V10.625H9.16557Z" fill="#4ECB71"/>
</svg>
