<svg xmlns="http://www.w3.org/2000/svg" viewBox="0 0 16.94 16.52"><defs><style>.cls-1{fill:#fff;}.cls-2{fill:#0058e8;}</style></defs><g id="Capa_2" data-name="Capa 2"><g id="Capa_1-2" data-name="Capa 1"><path class="cls-1" d="M16.4,11.83,12.24,16l-.12.11a1.85,1.85,0,0,1-2.6-2.6l.05-.05,4.16-4.16.06-.07a1.85,1.85,0,0,1,2.61,2.61Z"/><path class="cls-2" d="M16.37,3.18,12.21,7.34l-.12.11a1.85,1.85,0,0,1-2.6-2.6l0,0L13.7.64l.06-.07a1.85,1.85,0,0,1,2.61,2.61Z"/><path class="cls-2" d="M7.34,11.79,3.17,16a.63.63,0,0,1-.12.11,1.84,1.84,0,0,1-2.59-2.6l0-.05L4.66,9.25l.07-.07a1.85,1.85,0,0,1,2.61,2.61Z"/><path class="cls-1" d="M7.3,3.14,3.14,7.3,3,7.41A1.82,1.82,0,0,1,.54,7.29,1.84,1.84,0,0,1,.42,4.81l0,0L4.63.6A.46.46,0,0,1,4.7.53,1.84,1.84,0,0,1,7.3,3.14Z"/></g></g></svg>