<svg width="230" height="58" viewBox="0 0 230 58" fill="none" xmlns="http://www.w3.org/2000/svg">
<path d="M83.8701 10.7822V34.0586H79.7832V10.7822H83.8701ZM92.9117 17.5938V20.4795C93.6344 19.4053 94.4937 18.5801 95.4898 18.0039C96.398 17.4863 97.3404 17.2275 98.317 17.2275C99.8111 17.2275 100.988 17.7158 101.847 18.6924C102.629 19.5713 103.019 20.7334 103.019 22.1787V34.0586H99.152V23.2334C99.152 21.3877 98.3902 20.4648 96.8668 20.4648C96.1637 20.4648 95.441 20.748 94.6988 21.3145C94.0641 21.8125 93.5074 22.4619 93.0289 23.2627V34.0586H89.2496V17.5938H92.9117ZM111.548 17.5938V20.4795C112.954 18.3115 114.683 17.2275 116.734 17.2275C117.876 17.2275 118.819 17.5596 119.561 18.2236C120.176 18.79 120.586 19.5322 120.791 20.4502C122.207 18.3018 123.946 17.2275 126.006 17.2275C127.461 17.2275 128.594 17.7158 129.404 18.6924C130.137 19.5615 130.503 20.7236 130.503 22.1787V34.0586H126.724V23.2334C126.724 21.3877 125.962 20.4648 124.439 20.4648C123.755 20.4648 123.076 20.7578 122.403 21.3438C121.826 21.8516 121.358 22.4912 120.996 23.2627V34.0586H117.276V23.2334C117.276 21.3877 116.597 20.4648 115.239 20.4648C114.546 20.4648 113.853 20.7529 113.159 21.3291C112.554 21.8369 112.056 22.4814 111.665 23.2627V34.0586H107.945V17.5938H111.548ZM141.903 17.2275C144.305 17.2275 146.185 18.0918 147.543 19.8203C148.744 21.3535 149.345 23.3506 149.345 25.8115C149.345 28.6533 148.573 30.8652 147.03 32.4473C145.702 33.8047 143.983 34.4834 141.874 34.4834C139.452 34.4834 137.567 33.6191 136.22 31.8906C135.028 30.3672 134.432 28.3701 134.432 25.8994C134.432 23.0674 135.209 20.8555 136.762 19.2637C138.099 17.9062 139.813 17.2275 141.903 17.2275ZM141.903 19.9521C139.501 19.9521 138.3 21.915 138.3 25.8408C138.3 29.7861 139.491 31.7588 141.874 31.7588C144.276 31.7588 145.477 29.7861 145.477 25.8408C145.477 21.915 144.286 19.9521 141.903 19.9521ZM157.112 10.3574V19.9668C157.668 19.0586 158.386 18.3604 159.265 17.8721C160.017 17.4619 160.808 17.2568 161.638 17.2568C163.63 17.2568 165.188 18.0625 166.311 19.6738C167.356 21.1777 167.878 23.2041 167.878 25.7529C167.878 28.6436 167.156 30.8994 165.71 32.5205C164.548 33.8291 163.122 34.4834 161.433 34.4834C159.324 34.4834 157.786 33.4922 156.819 31.5098L156.057 34.0586H153.362V10.3574H157.112ZM157.112 23.0283V28.8145C157.903 30.6504 159.011 31.5684 160.437 31.5684C161.57 31.5684 162.454 31.041 163.088 29.9863C163.704 28.9805 164.011 27.5889 164.011 25.8115C164.011 23.8291 163.645 22.3496 162.912 21.373C162.336 20.5918 161.584 20.2012 160.657 20.2012C159.133 20.2012 157.952 21.1436 157.112 23.0283ZM175.66 17.5938V34.0586H171.881V17.5938H175.66ZM175.821 10.7822V14.6494H171.734V10.7822H175.821ZM185.141 12.2178V17.5938H188.833V20.3477H185.141V29.3857C185.141 30.9678 185.82 31.7588 187.177 31.7588C187.91 31.7588 188.549 31.6953 189.096 31.5684L188.95 34.2637C188.12 34.3906 187.138 34.4541 186.005 34.4541C184.336 34.4541 183.134 34.0537 182.402 33.2529C181.748 32.54 181.421 31.4805 181.421 30.0742V20.3477H178.96V17.5938H181.421V13.0674L185.141 12.2178ZM206.019 26.6465H194.886C194.905 28.3652 195.306 29.6836 196.087 30.6016C196.8 31.4316 197.781 31.8467 199.031 31.8467C200.799 31.8467 201.956 30.8018 202.503 28.7119L205.931 29.708C204.896 32.8916 202.581 34.4834 198.988 34.4834C196.361 34.4834 194.363 33.6338 192.996 31.9346C191.795 30.4502 191.195 28.4482 191.195 25.9287C191.195 23.0771 191.976 20.8604 193.538 19.2783C194.876 17.9111 196.585 17.2275 198.665 17.2275C200.989 17.2275 202.825 18.0723 204.173 19.7617C205.404 21.2949 206.019 23.3311 206.019 25.8701V26.6465ZM202.327 24.1562C202.142 21.2754 200.941 19.835 198.724 19.835C197.523 19.835 196.59 20.2744 195.926 21.1533C195.36 21.9053 195.032 22.9062 194.945 24.1562H202.327ZM223.117 22.4863L219.455 23.3213C219.103 21.0947 218.132 19.9814 216.54 19.9814C214.079 19.9814 212.848 21.9346 212.848 25.8408C212.848 29.7666 214.079 31.7295 216.54 31.7295C218.278 31.7295 219.328 30.5771 219.689 28.2725L223.205 29.2393C222.775 31.0557 221.911 32.4131 220.612 33.3115C219.489 34.0928 218.102 34.4834 216.452 34.4834C213.952 34.4834 212.038 33.624 210.71 31.9053C209.557 30.4014 208.981 28.3994 208.981 25.8994C208.981 23.0381 209.743 20.8262 211.266 19.2637C212.585 17.9062 214.313 17.2275 216.452 17.2275C218.346 17.2275 219.885 17.7451 221.066 18.7803C222.092 19.6787 222.775 20.9141 223.117 22.4863Z" fill="white"/>
<path d="M170.26 41.7129V42.9961H165.73V45.457H169.152V46.7402H165.73V49.7402H170.354V51.0234H164.113V41.7129H170.26ZM176.566 45.9727L175.136 46.3828C174.972 45.6758 174.581 45.3223 173.964 45.3223C173.628 45.3223 173.365 45.4004 173.173 45.5566C173.013 45.6816 172.933 45.8398 172.933 46.0312C172.933 46.3086 173.021 46.5156 173.197 46.6523C173.361 46.7773 173.664 46.8984 174.105 47.0156L174.656 47.1621C175.453 47.373 176.001 47.6445 176.302 47.9766C176.568 48.2695 176.701 48.666 176.701 49.166C176.701 49.8223 176.449 50.3301 175.945 50.6895C175.48 51.0254 174.843 51.1934 174.035 51.1934C172.601 51.1934 171.685 50.6445 171.287 49.5469L172.693 49.0547C172.904 49.793 173.363 50.1621 174.07 50.1621C174.871 50.1621 175.271 49.8789 175.271 49.3125C175.271 49.0312 175.177 48.8262 174.99 48.6973C174.83 48.5918 174.499 48.4668 173.999 48.3223L173.449 48.1699C172.687 47.9668 172.165 47.7012 171.884 47.373C171.638 47.084 171.515 46.6816 171.515 46.166C171.515 45.5762 171.755 45.1094 172.236 44.7656C172.677 44.4492 173.261 44.291 173.988 44.291C175.328 44.291 176.187 44.8516 176.566 45.9727ZM183.207 44.4375V45.4102C183.664 44.6641 184.28 44.291 185.053 44.291C185.854 44.291 186.481 44.6133 186.934 45.2578C187.352 45.8594 187.561 46.6699 187.561 47.6895C187.561 48.8535 187.276 49.7559 186.705 50.3965C186.241 50.9199 185.666 51.1816 184.983 51.1816C184.229 51.1816 183.653 50.8203 183.254 50.0977V53.3379H181.754V44.4375H183.207ZM183.254 46.582V48.9141C183.571 49.6484 184.014 50.0156 184.584 50.0156C185.037 50.0156 185.391 49.8066 185.645 49.3887C185.891 48.9902 186.014 48.4355 186.014 47.7246C186.014 46.9199 185.868 46.3223 185.575 45.9316C185.344 45.623 185.043 45.4688 184.672 45.4688C184.051 45.4688 183.578 45.8398 183.254 46.582ZM191.763 44.291C192.724 44.291 193.476 44.6367 194.019 45.3281C194.5 45.9414 194.74 46.7402 194.74 47.7246C194.74 48.8613 194.431 49.7461 193.814 50.3789C193.283 50.9219 192.595 51.1934 191.752 51.1934C190.783 51.1934 190.029 50.8477 189.49 50.1562C189.013 49.5469 188.775 48.748 188.775 47.7598C188.775 46.627 189.086 45.7422 189.707 45.1055C190.242 44.5625 190.927 44.291 191.763 44.291ZM191.763 45.3809C190.802 45.3809 190.322 46.166 190.322 47.7363C190.322 49.3145 190.799 50.1035 191.752 50.1035C192.713 50.1035 193.193 49.3145 193.193 47.7363C193.193 46.166 192.717 45.3809 191.763 45.3809ZM201.099 45.9727L199.669 46.3828C199.505 45.6758 199.114 45.3223 198.497 45.3223C198.161 45.3223 197.898 45.4004 197.706 45.5566C197.546 45.6816 197.466 45.8398 197.466 46.0312C197.466 46.3086 197.554 46.5156 197.73 46.6523C197.894 46.7773 198.196 46.8984 198.638 47.0156L199.189 47.1621C199.986 47.373 200.534 47.6445 200.835 47.9766C201.101 48.2695 201.234 48.666 201.234 49.166C201.234 49.8223 200.982 50.3301 200.478 50.6895C200.013 51.0254 199.376 51.1934 198.568 51.1934C197.134 51.1934 196.218 50.6445 195.82 49.5469L197.226 49.0547C197.437 49.793 197.896 50.1621 198.603 50.1621C199.404 50.1621 199.804 49.8789 199.804 49.3125C199.804 49.0312 199.71 48.8262 199.523 48.6973C199.362 48.5918 199.032 48.4668 198.532 48.3223L197.982 48.1699C197.22 47.9668 196.698 47.7012 196.417 47.373C196.171 47.084 196.048 46.6816 196.048 46.166C196.048 45.5762 196.288 45.1094 196.769 44.7656C197.21 44.4492 197.794 44.291 198.521 44.291C199.861 44.291 200.72 44.8516 201.099 45.9727ZM204.305 44.4375V51.0234H202.794V44.4375H204.305ZM204.37 41.7129V43.2598H202.735V41.7129H204.37ZM207.799 41.543V45.3867C208.022 45.0234 208.309 44.7441 208.66 44.5488C208.961 44.3848 209.277 44.3027 209.609 44.3027C210.406 44.3027 211.029 44.625 211.479 45.2695C211.897 45.8711 212.106 46.6816 212.106 47.7012C212.106 48.8574 211.816 49.7598 211.238 50.4082C210.774 50.9316 210.203 51.1934 209.527 51.1934C208.684 51.1934 208.068 50.7969 207.682 50.0039L207.377 51.0234H206.299V41.543H207.799ZM207.799 46.6113V48.9258C208.115 49.6602 208.559 50.0273 209.129 50.0273C209.582 50.0273 209.936 49.8164 210.19 49.3945C210.436 48.9922 210.559 48.4355 210.559 47.7246C210.559 46.9316 210.412 46.3398 210.119 45.9492C209.889 45.6367 209.588 45.4805 209.217 45.4805C208.607 45.4805 208.135 45.8574 207.799 46.6113ZM215.23 41.543V51.0234H213.718V41.543H215.23ZM222.767 48.0586H218.313C218.321 48.7461 218.481 49.2734 218.794 49.6406C219.079 49.9727 219.472 50.1387 219.972 50.1387C220.679 50.1387 221.142 49.7207 221.36 48.8848L222.731 49.2832C222.317 50.5566 221.392 51.1934 219.954 51.1934C218.903 51.1934 218.104 50.8535 217.558 50.1738C217.077 49.5801 216.837 48.7793 216.837 47.7715C216.837 46.6309 217.149 45.7441 217.774 45.1113C218.31 44.5645 218.993 44.291 219.825 44.291C220.755 44.291 221.489 44.6289 222.028 45.3047C222.52 45.918 222.767 46.7324 222.767 47.748V48.0586ZM221.29 47.0625C221.216 45.9102 220.735 45.334 219.849 45.334C219.368 45.334 218.995 45.5098 218.729 45.8613C218.503 46.1621 218.372 46.5625 218.337 47.0625H221.29Z" fill="white"/>
<path d="M5 23.0769L35.1932 5.45714C35.4563 5.3036 35.5879 5.22683 35.7264 5.19225C35.8899 5.15142 36.0611 5.1526 36.2241 5.19566C36.3621 5.23213 36.4926 5.3107 36.7536 5.46783L65.2592 22.6309C65.5086 22.7811 65.6333 22.8562 65.7275 22.9559C65.8386 23.0738 65.9194 23.2168 65.9631 23.3728C66 23.5049 66 23.6505 66 23.9416V49.4887C66 50.254 66 50.6367 65.8564 50.8749C65.6876 51.155 65.3924 51.3348 65.066 51.3564C64.7885 51.3748 64.4485 51.1993 63.7683 50.8483L36.7435 36.9013C36.4853 36.768 36.3561 36.7014 36.222 36.6736C36.0637 36.6408 35.8997 36.6469 35.7443 36.6914C35.6126 36.729 35.4888 36.8051 35.2411 36.9571L21.6797 45.2857" stroke="#0AEE75" stroke-width="10" stroke-linecap="round"/>
<path d="M5 37V53" stroke="#0AEE75" stroke-width="10" stroke-linecap="round"/>
</svg>
