<svg width="12" height="13" viewBox="0 0 12 13" fill="none" xmlns="http://www.w3.org/2000/svg">
<path d="M5.71429 11.2143H6.21429H5.71429ZM4.14286 11.2143H3.64286H4.14286ZM6.77731 5.14305C6.90879 4.90022 6.81851 4.59678 6.57567 4.46531C6.33284 4.33383 6.0294 4.42411 5.89793 4.66695L6.77731 5.14305ZM7.105 8.60048L6.78715 8.98644C6.79102 8.98963 6.79494 8.99277 6.79891 8.99584L7.105 8.60048ZM7.27786 8.84667L7.75653 8.70221C7.75438 8.69506 7.75206 8.68797 7.74959 8.68092L7.27786 8.84667ZM7.59275 11.6207C7.67254 11.885 7.95152 12.0347 8.21589 11.9549C8.48026 11.8751 8.62989 11.5961 8.55011 11.3317L7.59275 11.6207ZM3.75262 9.02476L3.34647 8.73291L3.33984 8.74261L3.75262 9.02476ZM3.11357 9.21333L3.30737 8.75242L3.30576 8.75174L3.11357 9.21333ZM1.19219 7.87174C0.937257 7.7656 0.644552 7.88622 0.538411 8.14115C0.432269 8.39608 0.552885 8.68878 0.807814 8.79492L1.19219 7.87174ZM10.9524 6.7381C11.2285 6.7381 11.4524 6.51424 11.4524 6.2381C11.4524 5.96195 11.2285 5.7381 10.9524 5.7381V6.7381ZM8.84667 6.16738L8.60109 6.60292L8.60154 6.60317L8.84667 6.16738ZM8.00595 5.69333L7.75311 6.12477L7.76037 6.12887L8.00595 5.69333ZM4.60905 4.44143L4.69735 3.94929L4.6962 3.94908L4.60905 4.44143ZM3.76571 4.29214L3.6782 4.78442L3.67856 4.78449L3.76571 4.29214ZM3.42 4.34976L3.64881 4.79455L3.66096 4.78787L3.42 4.34976ZM1.55699 4.74586C1.31144 4.87218 1.21478 5.17364 1.3411 5.4192C1.46742 5.66476 1.76888 5.76142 2.01444 5.6351L1.55699 4.74586ZM7.54762 4.11905C8.02753 4.11905 8.48779 3.9284 8.82715 3.58905L8.12004 2.88194C7.96822 3.03376 7.76232 3.11905 7.54762 3.11905V4.11905ZM8.82715 3.58905C9.1665 3.2497 9.35714 2.78944 9.35714 2.30952H8.35714C8.35714 2.52422 8.27185 2.73013 8.12004 2.88194L8.82715 3.58905ZM9.35714 2.30952C9.35714 1.82961 9.1665 1.36935 8.82715 1.03L8.12004 1.7371C8.27185 1.88892 8.35714 2.09482 8.35714 2.30952H9.35714ZM8.82715 1.03C8.48779 0.690646 8.02753 0.5 7.54762 0.5V1.5C7.76232 1.5 7.96822 1.58529 8.12004 1.7371L8.82715 1.03ZM7.54762 0.5C7.0677 0.5 6.60744 0.690646 6.26809 1.03L6.9752 1.7371C7.12701 1.58529 7.33292 1.5 7.54762 1.5V0.5ZM6.26809 1.03C5.92874 1.36935 5.7381 1.82961 5.7381 2.30952H6.7381C6.7381 2.09482 6.82338 1.88892 6.9752 1.7371L6.26809 1.03ZM5.7381 2.30952C5.7381 2.78944 5.92874 3.2497 6.26809 3.58905L6.9752 2.88194C6.82338 2.73013 6.7381 2.52422 6.7381 2.30952H5.7381ZM6.26809 3.58905C6.60744 3.9284 7.0677 4.11905 7.54762 4.11905V3.11905C7.33292 3.11905 7.12701 3.03376 6.9752 2.88194L6.26809 3.58905ZM4.92857 12.5C5.26957 12.5 5.59659 12.3645 5.83771 12.1234L5.1306 11.4163C5.07702 11.4699 5.00435 11.5 4.92857 11.5V12.5ZM5.83771 12.1234C6.07883 11.8823 6.21429 11.5553 6.21429 11.2143H5.21429C5.21429 11.2901 5.18418 11.3627 5.1306 11.4163L5.83771 12.1234ZM6.21429 11.2143C6.21429 10.8733 6.07883 10.5463 5.83771 10.3052L5.1306 11.0123C5.18418 11.0658 5.21429 11.1385 5.21429 11.2143H6.21429ZM5.83771 10.3052C5.59659 10.064 5.26957 9.92857 4.92857 9.92857V10.9286C5.00435 10.9286 5.07702 10.9587 5.1306 11.0123L5.83771 10.3052ZM4.92857 9.92857C4.58758 9.92857 4.26055 10.064 4.01943 10.3052L4.72654 11.0123C4.78012 10.9587 4.8528 10.9286 4.92857 10.9286V9.92857ZM4.01943 10.3052C3.77832 10.5463 3.64286 10.8733 3.64286 11.2143H4.64286C4.64286 11.1385 4.67296 11.0658 4.72654 11.0123L4.01943 10.3052ZM3.64286 11.2143C3.64286 11.5553 3.77832 11.8823 4.01943 12.1234L4.72654 11.4163C4.67296 11.3627 4.64286 11.2901 4.64286 11.2143H3.64286ZM4.01943 12.1234C4.26055 12.3645 4.58758 12.5 4.92857 12.5V11.5C4.8528 11.5 4.78012 11.4699 4.72654 11.4163L4.01943 12.1234ZM5.89793 4.66695L4.75078 6.78576L5.63017 7.26186L6.77731 5.14305L5.89793 4.66695ZM4.87262 7.40977L6.78715 8.98644L7.42285 8.21451L5.50833 6.63784L4.87262 7.40977ZM6.79891 8.99584C6.79382 8.9919 6.7995 8.99356 6.80613 9.01241L7.74959 8.68092C7.68812 8.50597 7.57856 8.33477 7.41109 8.20511L6.79891 8.99584ZM6.79918 8.99113L7.59275 11.6207L8.55011 11.3317L7.75653 8.70221L6.79918 8.99113ZM4.78444 6.73204L3.34658 8.73299L4.15866 9.31654L5.59652 7.31558L4.78444 6.73204ZM3.33984 8.74261C3.33242 8.75346 3.31879 8.75722 3.30737 8.75242L2.91978 9.67425C3.36931 9.86326 3.88996 9.70988 4.1654 9.30692L3.33984 8.74261ZM3.30576 8.75174L1.19219 7.87174L0.807814 8.79492L2.92139 9.67492L3.30576 8.75174ZM10.9524 5.7381H9.11905V6.7381H10.9524V5.7381ZM9.11905 5.7381C9.1075 5.7381 9.09808 5.73513 9.0918 5.73159L8.60154 6.60317C8.76287 6.69392 8.94203 6.7381 9.11905 6.7381V5.7381ZM9.09225 5.73185L8.25153 5.2578L7.76037 6.12887L8.60109 6.60292L9.09225 5.73185ZM8.25876 5.26195C7.15704 4.61631 5.9515 4.17432 4.69735 3.94929L4.52074 4.93357C5.66041 5.13806 6.75439 5.53941 7.75315 6.12472L8.25876 5.26195ZM4.6962 3.94908L3.85287 3.7998L3.67856 4.78449L4.52189 4.93377L4.6962 3.94908ZM3.85323 3.79986C3.6211 3.75859 3.38227 3.79988 3.17904 3.91165L3.66096 4.78787C3.66348 4.78649 3.66684 4.78524 3.67059 4.78461C3.67431 4.78399 3.67698 4.78421 3.6782 4.78442L3.85323 3.79986ZM3.19128 3.90514L1.55699 4.74586L2.01444 5.6351L3.64872 4.79438L3.19128 3.90514Z" fill="#4ECB71"/>
</svg>
