<svg width="80" height="72" viewBox="0 0 80 72" fill="none" xmlns="http://www.w3.org/2000/svg">
<g filter="url(#filter0_d_625_46)">
<rect x="4" width="72" height="28" rx="2" fill="#BD2814"/>
<rect x="36" y="24" width="5" height="40" fill="#BD2814"/>
<path d="M20.8125 15.0566H17.1152V18.0801H21.4102V19H15.9902V10.4688H21.3516V11.3945H17.1152V14.1367H20.8125V15.0566ZM28.8823 11.3945H26.1401V19H25.0209V11.3945H22.2846V10.4688H28.8823V11.3945ZM34.4501 16.7734H30.8759L30.0731 19H28.913L32.1708 10.4688H33.1552L36.4188 19H35.2645L34.4501 16.7734ZM31.2157 15.8477H34.1161L32.663 11.8574L31.2157 15.8477ZM38.7523 15.6602V19H37.6273V10.4688H40.7738C41.7073 10.4688 42.4378 10.707 42.9652 11.1836C43.4964 11.6602 43.762 12.291 43.762 13.0762C43.762 13.9043 43.5023 14.543 42.9827 14.9922C42.4671 15.4375 41.7269 15.6602 40.762 15.6602H38.7523ZM38.7523 14.7402H40.7738C41.3753 14.7402 41.8363 14.5996 42.1566 14.3184C42.4769 14.0332 42.637 13.623 42.637 13.0879C42.637 12.5801 42.4769 12.1738 42.1566 11.8691C41.8363 11.5645 41.3968 11.4062 40.8382 11.3945H38.7523V14.7402ZM49.1599 16.7734H45.5857L44.783 19H43.6228L46.8806 10.4688H47.865L51.1287 19H49.9744L49.1599 16.7734ZM45.9255 15.8477H48.8259L47.3728 11.8574L45.9255 15.8477ZM60.442 15.3613C60.442 16.6309 60.2252 17.5742 59.7916 18.1914C59.358 18.8086 58.6803 19.1172 57.7584 19.1172C56.8483 19.1172 56.1745 18.8164 55.737 18.2148C55.2995 17.6094 55.0729 16.707 55.0573 15.5078V14.0605C55.0573 12.8066 55.2741 11.875 55.7077 11.2656C56.1413 10.6562 56.8209 10.3516 57.7467 10.3516C58.6647 10.3516 59.3405 10.6465 59.7741 11.2363C60.2077 11.8223 60.4303 12.7285 60.442 13.9551V15.3613ZM59.358 13.8789C59.358 12.9609 59.2291 12.293 58.9713 11.875C58.7135 11.4531 58.3053 11.2422 57.7467 11.2422C57.192 11.2422 56.7877 11.4512 56.5338 11.8691C56.2799 12.2871 56.1491 12.9297 56.1413 13.7969V15.5312C56.1413 16.4531 56.2741 17.1348 56.5397 17.5762C56.8092 18.0137 57.2155 18.2324 57.7584 18.2324C58.2936 18.2324 58.6901 18.0254 58.9479 17.6113C59.2096 17.1973 59.3463 16.5449 59.358 15.6543V13.8789ZM65.4532 19H64.3634V11.7754L62.1778 12.5781V11.5938L65.2833 10.4277H65.4532V19Z" fill="white"/>
</g>
<defs>
<filter id="filter0_d_625_46" x="0" y="0" width="80" height="72" filterUnits="userSpaceOnUse" color-interpolation-filters="sRGB">
<feFlood flood-opacity="0" result="BackgroundImageFix"/>
<feColorMatrix in="SourceAlpha" type="matrix" values="0 0 0 0 0 0 0 0 0 0 0 0 0 0 0 0 0 0 127 0" result="hardAlpha"/>
<feOffset dy="4"/>
<feGaussianBlur stdDeviation="2"/>
<feComposite in2="hardAlpha" operator="out"/>
<feColorMatrix type="matrix" values="0 0 0 0 0.0125 0 0 0 0 0.0125 0 0 0 0 0.0125 0 0 0 0.4 0"/>
<feBlend mode="normal" in2="BackgroundImageFix" result="effect1_dropShadow_625_46"/>
<feBlend mode="normal" in="SourceGraphic" in2="effect1_dropShadow_625_46" result="shape"/>
</filter>
</defs>
</svg>
