<svg width="25" height="25" viewBox="0 0 25 25" fill="none" xmlns="http://www.w3.org/2000/svg">
<g clip-path="url(#clip0_1_255)">
<path d="M21.3333 3.65835C20.1736 2.4961 18.7957 1.57441 17.2787 0.946247C15.7617 0.31808 14.1356 -0.00419432 12.4937 -0.00206471C5.58955 -0.00206471 -0.00732422 5.59481 -0.00732422 12.499C-0.00732422 15.9511 1.39268 19.0771 3.65518 21.3396C4.81489 22.5019 6.19281 23.4235 7.70978 24.0517C9.22675 24.6799 10.8529 25.0022 12.4948 25C19.3989 25 24.9958 19.4031 24.9958 12.499C24.9958 9.0469 23.5958 5.92085 21.3333 3.65835ZM19.727 19.7281C18.7783 20.6793 17.651 21.4336 16.4098 21.9477C15.1687 22.4619 13.8382 22.7257 12.4948 22.724C6.8458 22.724 2.26663 18.1448 2.26663 12.4959C2.26495 11.1524 2.52875 9.82192 3.04287 8.58077C3.557 7.33961 4.31131 6.21229 5.26247 5.26356C6.21097 4.31239 7.3381 3.55806 8.57909 3.04393C9.82008 2.5298 11.1504 2.26601 12.4937 2.26773C18.1416 2.26773 22.7208 6.8469 22.7208 12.4948C22.7226 13.8381 22.4588 15.1685 21.9447 16.4095C21.4305 17.6505 20.6762 18.7776 19.725 19.7261L19.727 19.7281Z" fill="#0058E8"/>
<path d="M14.101 12.5L18.1166 8.48439C18.3147 8.26848 18.4217 7.98441 18.4154 7.69147C18.409 7.39853 18.2898 7.11937 18.0825 6.91225C17.8753 6.70513 17.596 6.58606 17.3031 6.5799C17.0101 6.57373 16.7261 6.68096 16.5104 6.87918L16.5114 6.87814L12.4958 10.8938L8.48016 6.87814C8.26425 6.68005 7.98018 6.57302 7.68724 6.57937C7.39431 6.58572 7.11514 6.70497 6.90802 6.91222C6.7009 7.11948 6.58183 7.39872 6.57567 7.69166C6.56951 7.9846 6.67673 8.26861 6.87495 8.48439L6.87391 8.48334L10.8895 12.499L6.87391 16.5146C6.76093 16.6182 6.67009 16.7437 6.60686 16.8834C6.54364 17.0231 6.50933 17.1741 6.506 17.3274C6.50268 17.4807 6.53041 17.633 6.58752 17.7753C6.64464 17.9176 6.72995 18.0469 6.83834 18.1554C6.94672 18.2638 7.07593 18.3492 7.21818 18.4064C7.36044 18.4636 7.5128 18.4914 7.66609 18.4882C7.81939 18.485 7.97044 18.4508 8.11017 18.3877C8.24989 18.3245 8.37539 18.2338 8.47912 18.1208L8.48016 18.1198L12.4958 14.1042L16.5114 18.1198C16.6151 18.2328 16.7405 18.3236 16.8802 18.3868C17.0199 18.4501 17.1709 18.4844 17.3242 18.4877C17.4775 18.491 17.6299 18.4633 17.7722 18.4062C17.9145 18.3491 18.0437 18.2638 18.1522 18.1554C18.2606 18.047 18.346 17.9178 18.4032 17.7755C18.4604 17.6333 18.4883 17.4809 18.485 17.3276C18.4818 17.1743 18.4476 17.0233 18.3845 16.8835C18.3213 16.7438 18.2306 16.6183 18.1177 16.5146L18.1166 16.5135L14.101 12.5Z" fill="#0058E8"/>
</g>
<defs>
<clipPath id="clip0_1_255">
<rect width="25" height="25" fill="white"/>
</clipPath>
</defs>
</svg>
